<svg id="svg" version="1.1" xmlns="http://www.w3.org/2000/svg" xmlns:xlink="http://www.w3.org/1999/xlink" width="400" height="400" viewBox="0, 0, 400,400"><g id="svgg"><path id="path0" d="M225.681 7.032 C 217.203 8.889,208.656 15.067,201.381 24.598 C 200.621 25.593,200.000 26.513,200.000 26.642 C 200.000 26.771,199.661 27.354,199.247 27.938 C 194.023 35.307,189.047 48.589,187.235 60.000 C 186.167 66.729,186.000 68.848,186.003 75.677 C 186.010 91.117,188.775 104.217,195.166 119.088 C 198.050 125.799,197.829 127.614,194.126 127.594 C 192.528 127.585,192.196 127.279,190.872 124.592 C 186.724 116.168,183.277 105.582,181.564 96.000 C 181.308 94.570,181.037 93.174,180.961 92.897 C 180.688 91.901,172.988 87.575,166.000 84.492 C 146.126 75.723,118.664 76.742,93.000 87.200 C 83.527 91.061,77.312 93.931,77.072 94.557 C 76.664 95.620,82.684 97.898,91.400 99.979 C 108.587 104.081,115.344 106.664,124.019 112.447 C 131.354 117.338,140.804 127.632,140.797 130.725 C 140.792 133.032,138.797 136.060,133.452 141.877 C 126.517 149.423,119.264 160.180,116.646 166.800 C 116.255 167.790,115.691 169.140,115.394 169.800 C 114.311 172.206,113.232 176.065,112.040 181.800 C 110.813 187.702,110.604 198.939,111.697 200.300 C 112.360 201.127,127.673 200.464,133.400 199.361 C 135.389 198.978,140.507 197.925,142.000 197.591 C 153.052 195.124,166.880 188.230,177.600 179.843 C 180.402 177.650,186.896 172.274,188.200 171.066 C 195.429 164.373,202.753 160.800,209.244 160.800 C 222.351 160.800,233.665 164.769,252.200 175.869 C 271.717 187.558,284.573 192.937,301.400 196.457 C 306.131 197.446,318.125 199.202,320.145 199.201 C 321.179 199.200,320.902 197.306,318.738 189.600 C 318.521 188.830,318.245 187.792,318.124 187.294 C 318.003 186.796,317.746 186.290,317.552 186.170 C 317.359 186.051,317.200 185.690,317.200 185.368 C 317.200 185.046,316.480 183.239,315.600 181.352 C 314.720 179.465,314.000 177.854,314.000 177.773 C 314.000 177.691,313.075 176.044,311.944 174.112 C 301.115 155.619,283.858 141.102,262.628 132.630 C 255.982 129.978,255.140 126.545,260.748 124.957 C 276.339 120.539,288.159 113.120,298.633 101.175 C 302.905 96.303,310.000 83.071,310.000 79.976 C 310.000 79.500,308.470 79.491,306.960 79.959 C 306.322 80.156,304.540 80.514,303.000 80.755 C 301.460 80.995,298.850 81.416,297.200 81.690 C 295.046 82.048,287.542 82.190,270.600 82.194 C 236.361 82.203,235.266 82.435,220.200 92.888 C 218.440 94.109,216.350 95.472,215.555 95.916 C 210.391 98.805,210.732 98.247,211.827 102.011 C 213.875 109.057,217.503 115.672,222.581 121.621 C 224.782 124.199,225.011 125.862,223.346 127.171 C 221.359 128.734,219.844 128.137,216.973 124.657 C 197.367 100.893,199.264 66.622,221.341 45.724 C 224.020 43.188,231.419 37.600,232.098 37.600 C 232.482 37.600,240.852 32.785,243.490 31.046 C 246.991 28.738,248.184 27.310,250.457 22.705 C 251.118 21.367,250.835 17.666,249.925 15.729 C 246.549 8.549,236.014 4.769,225.681 7.032 " stroke="none" fill="#6bc283" fill-rule="evenodd"></path><path id="path1" d="M223.300 0.271 C 222.365 0.367,221.600 0.616,221.600 0.823 C 221.600 1.030,221.060 1.200,220.400 1.200 C 219.740 1.200,219.200 1.380,219.200 1.600 C 219.200 1.820,218.660 2.000,218.000 2.000 C 217.340 2.000,216.800 2.180,216.800 2.400 C 216.800 2.620,216.440 2.800,216.000 2.800 C 215.560 2.800,215.200 2.980,215.200 3.200 C 215.200 3.420,214.840 3.600,214.400 3.600 C 213.960 3.600,213.600 3.780,213.600 4.000 C 213.600 4.220,213.330 4.400,213.000 4.400 C 212.670 4.400,212.400 4.580,212.400 4.800 C 212.400 5.020,212.130 5.200,211.800 5.200 C 211.470 5.200,211.200 5.380,211.200 5.600 C 211.200 5.820,210.970 6.000,210.688 6.000 C 210.407 6.000,209.917 6.360,209.600 6.800 C 209.283 7.240,208.787 7.600,208.498 7.600 C 208.210 7.600,207.375 8.185,206.645 8.900 C 205.914 9.615,204.903 10.470,204.398 10.800 C 202.652 11.942,196.492 18.566,195.839 20.004 C 195.640 20.442,195.353 20.800,195.200 20.800 C 195.047 20.800,194.597 21.520,194.200 22.400 C 193.803 23.280,193.326 24.000,193.139 24.000 C 192.953 24.000,192.800 24.360,192.800 24.800 C 192.800 25.240,192.620 25.600,192.400 25.600 C 192.180 25.600,192.000 25.878,192.000 26.217 C 192.000 26.556,191.640 27.220,191.200 27.692 C 190.760 28.164,190.176 29.056,189.903 29.675 C 189.629 30.294,189.269 30.800,189.102 30.800 C 188.936 30.800,188.800 31.053,188.800 31.362 C 188.800 31.847,188.248 33.120,186.750 36.095 C 186.557 36.477,186.400 37.062,186.400 37.395 C 186.400 37.728,186.220 38.000,186.000 38.000 C 185.780 38.000,185.600 38.540,185.600 39.200 C 185.600 39.860,185.420 40.400,185.200 40.400 C 184.980 40.400,184.800 40.760,184.800 41.200 C 184.800 41.640,184.620 42.000,184.400 42.000 C 184.180 42.000,184.000 42.540,184.000 43.200 C 184.000 43.860,183.820 44.400,183.600 44.400 C 183.380 44.400,183.200 45.030,183.200 45.800 C 183.200 46.570,183.020 47.200,182.800 47.200 C 182.580 47.200,182.400 47.729,182.400 48.376 C 182.400 49.023,182.220 49.664,182.000 49.800 C 181.780 49.936,181.600 50.746,181.600 51.600 C 181.600 52.454,181.420 53.264,181.200 53.400 C 180.980 53.536,180.800 54.537,180.800 55.624 C 180.800 56.711,180.620 57.600,180.400 57.600 C 180.179 57.600,180.000 58.640,180.000 59.920 C 180.000 61.196,179.813 62.427,179.584 62.656 C 179.322 62.918,179.152 66.691,179.124 72.882 C 179.081 82.217,179.043 82.684,178.340 82.500 C 177.933 82.394,177.600 82.148,177.600 81.953 C 177.600 81.759,177.255 81.600,176.833 81.600 C 176.412 81.600,176.007 81.456,175.933 81.280 C 175.860 81.104,174.540 80.377,173.000 79.664 C 171.460 78.951,169.907 78.207,169.549 78.011 C 169.191 77.815,168.246 77.532,167.449 77.383 C 166.652 77.233,166.000 76.951,166.000 76.755 C 166.000 76.560,165.460 76.400,164.800 76.400 C 164.140 76.400,163.600 76.220,163.600 76.000 C 163.600 75.780,163.060 75.600,162.400 75.600 C 161.740 75.600,161.200 75.420,161.200 75.200 C 161.200 74.980,160.570 74.800,159.800 74.800 C 159.030 74.800,158.400 74.620,158.400 74.400 C 158.400 74.180,157.781 74.000,157.024 74.000 C 156.267 74.000,155.536 73.820,155.400 73.600 C 155.264 73.380,154.454 73.200,153.600 73.200 C 152.746 73.200,151.936 73.020,151.800 72.800 C 151.664 72.580,150.393 72.400,148.976 72.400 C 147.525 72.400,146.400 72.225,146.400 72.000 C 146.400 71.743,142.400 71.600,135.200 71.600 C 128.000 71.600,124.000 71.743,124.000 72.000 C 124.000 72.229,122.800 72.400,121.200 72.400 C 119.600 72.400,118.400 72.571,118.400 72.800 C 118.400 73.020,117.410 73.200,116.200 73.200 C 114.990 73.200,114.000 73.380,114.000 73.600 C 114.000 73.820,113.291 74.000,112.424 74.000 C 111.557 74.000,110.736 74.180,110.600 74.400 C 110.464 74.620,109.733 74.800,108.976 74.800 C 108.219 74.800,107.600 74.980,107.600 75.200 C 107.600 75.420,106.880 75.600,106.000 75.600 C 105.120 75.600,104.400 75.780,104.400 76.000 C 104.400 76.220,103.860 76.400,103.200 76.400 C 102.540 76.400,102.000 76.555,102.000 76.745 C 102.000 76.935,101.004 77.207,99.786 77.350 C 98.569 77.493,97.219 77.788,96.786 78.005 C 96.354 78.222,95.642 78.580,95.205 78.800 C 94.768 79.020,94.048 79.200,93.605 79.200 C 93.162 79.200,92.800 79.380,92.800 79.600 C 92.800 79.820,92.361 80.000,91.824 80.000 C 91.287 80.000,90.736 80.180,90.600 80.400 C 90.464 80.620,90.003 80.800,89.576 80.800 C 89.149 80.800,88.800 80.980,88.800 81.200 C 88.800 81.420,88.260 81.600,87.600 81.600 C 86.940 81.600,86.400 81.780,86.400 82.000 C 86.400 82.220,86.040 82.400,85.600 82.400 C 85.160 82.400,84.800 82.580,84.800 82.800 C 84.800 83.020,84.528 83.200,84.195 83.200 C 83.862 83.200,83.232 83.380,82.795 83.600 C 82.358 83.820,81.642 84.180,81.205 84.400 C 80.768 84.620,80.138 84.800,79.805 84.800 C 79.472 84.800,79.200 84.946,79.200 85.125 C 79.200 85.304,78.570 85.698,77.800 86.000 C 77.030 86.302,76.400 86.696,76.400 86.875 C 76.400 87.054,76.040 87.200,75.600 87.200 C 75.160 87.200,74.800 87.380,74.800 87.600 C 74.800 87.820,74.440 88.000,74.000 88.000 C 73.560 88.000,73.200 88.180,73.200 88.400 C 73.200 88.620,72.840 88.800,72.400 88.800 C 71.960 88.800,71.600 88.980,71.600 89.200 C 71.600 89.420,71.240 89.600,70.800 89.600 C 70.360 89.600,70.000 89.780,70.000 90.000 C 70.000 90.220,69.717 90.400,69.371 90.400 C 68.162 90.400,67.600 91.477,67.600 93.794 C 67.600 96.135,70.781 100.232,73.193 100.998 C 73.637 101.139,74.000 101.422,74.000 101.627 C 74.000 101.832,74.360 102.000,74.800 102.000 C 75.240 102.000,75.600 102.180,75.600 102.400 C 75.600 102.620,75.960 102.800,76.400 102.800 C 76.840 102.800,77.200 102.980,77.200 103.200 C 77.200 103.420,77.650 103.600,78.200 103.600 C 78.750 103.600,79.200 103.780,79.200 104.000 C 79.200 104.220,79.639 104.400,80.176 104.400 C 80.713 104.400,81.264 104.580,81.400 104.800 C 81.536 105.020,82.166 105.200,82.800 105.200 C 83.434 105.200,84.064 105.380,84.200 105.600 C 84.336 105.820,85.031 106.000,85.744 106.000 C 86.974 106.000,88.000 106.582,88.000 107.280 C 88.000 107.456,87.640 107.600,87.200 107.600 C 86.760 107.600,86.400 107.780,86.400 108.000 C 86.400 108.220,86.040 108.400,85.600 108.400 C 85.160 108.400,84.800 108.580,84.800 108.800 C 84.800 109.020,84.440 109.200,84.000 109.200 C 83.560 109.200,83.200 109.358,83.200 109.550 C 83.200 109.743,82.688 110.002,82.063 110.127 C 80.920 110.356,76.716 112.740,76.467 113.300 C 76.393 113.465,75.988 113.600,75.567 113.600 C 75.145 113.600,74.800 113.780,74.800 114.000 C 74.800 114.220,74.564 114.400,74.275 114.400 C 73.987 114.400,73.364 114.760,72.892 115.200 C 72.420 115.640,71.796 116.000,71.505 116.000 C 71.214 116.000,70.717 116.360,70.400 116.800 C 70.083 117.240,69.543 117.600,69.200 117.600 C 68.857 117.600,68.317 117.960,68.000 118.400 C 67.683 118.840,67.143 119.200,66.800 119.200 C 66.457 119.200,65.917 119.560,65.600 120.000 C 65.283 120.440,64.820 120.800,64.571 120.800 C 64.322 120.800,63.554 121.340,62.863 122.000 C 62.172 122.660,61.498 123.200,61.364 123.200 C 61.230 123.200,60.617 123.740,60.000 124.400 C 59.383 125.060,58.726 125.600,58.540 125.600 C 58.353 125.601,57.660 126.050,57.000 126.598 C 55.197 128.096,52.845 130.056,51.239 131.400 C 50.450 132.060,48.454 134.011,46.802 135.735 C 45.151 137.459,43.035 139.660,42.100 140.625 C 41.165 141.589,40.400 142.538,40.400 142.731 C 40.400 142.925,39.895 143.515,39.277 144.042 C 38.659 144.569,37.534 145.807,36.777 146.794 C 36.020 147.781,34.905 149.068,34.300 149.655 C 33.695 150.241,33.200 150.892,33.200 151.101 C 33.200 151.310,32.705 152.006,32.100 152.648 C 31.495 153.289,30.745 154.306,30.432 154.907 C 30.120 155.508,29.737 156.000,29.581 156.000 C 29.425 156.000,29.073 156.540,28.800 157.200 C 28.527 157.860,28.157 158.400,27.978 158.400 C 27.800 158.400,27.530 158.791,27.378 159.269 C 27.226 159.747,26.764 160.501,26.351 160.945 C 25.938 161.388,25.600 161.987,25.600 162.275 C 25.600 162.564,25.420 162.800,25.200 162.800 C 24.980 162.800,24.800 163.036,24.800 163.325 C 24.800 163.613,24.440 164.236,24.000 164.708 C 23.560 165.180,23.200 165.844,23.200 166.183 C 23.200 166.522,23.020 166.800,22.800 166.800 C 22.580 166.800,22.400 167.070,22.400 167.400 C 22.400 167.730,22.220 168.000,22.000 168.000 C 21.780 168.000,21.600 168.270,21.600 168.600 C 21.600 168.930,21.420 169.200,21.200 169.200 C 20.980 169.200,20.800 169.560,20.800 170.000 C 20.800 170.440,20.620 170.800,20.400 170.800 C 20.180 170.800,20.000 171.160,20.000 171.600 C 20.000 172.040,19.820 172.400,19.600 172.400 C 19.380 172.400,19.200 172.760,19.200 173.200 C 19.200 173.640,19.020 174.000,18.800 174.000 C 18.580 174.000,18.400 174.360,18.400 174.800 C 18.400 175.240,18.220 175.600,18.000 175.600 C 17.780 175.600,17.600 175.945,17.600 176.367 C 17.600 176.788,17.464 177.193,17.298 177.267 C 17.132 177.340,16.393 178.660,15.656 180.200 C 14.919 181.740,14.155 183.313,13.958 183.695 C 13.761 184.077,13.600 184.662,13.600 184.995 C 13.600 185.328,13.420 185.600,13.200 185.600 C 12.980 185.600,12.800 185.949,12.800 186.376 C 12.800 186.803,12.620 187.264,12.400 187.400 C 12.180 187.536,12.000 188.087,12.000 188.624 C 12.000 189.161,11.860 189.600,11.689 189.600 C 11.345 189.600,10.000 193.838,10.000 194.920 C 10.000 195.294,9.820 195.600,9.600 195.600 C 9.380 195.600,9.200 196.140,9.200 196.800 C 9.200 197.460,9.020 198.000,8.800 198.000 C 8.580 198.000,8.400 198.540,8.400 199.200 C 8.400 199.860,8.220 200.400,8.000 200.400 C 7.780 200.400,7.600 201.030,7.600 201.800 C 7.600 202.570,7.420 203.200,7.200 203.200 C 6.980 203.200,6.800 203.830,6.800 204.600 C 6.800 205.370,6.620 206.000,6.400 206.000 C 6.180 206.000,6.000 206.720,6.000 207.600 C 6.000 208.480,5.820 209.200,5.600 209.200 C 5.380 209.200,5.200 209.909,5.200 210.776 C 5.200 211.643,5.020 212.464,4.800 212.600 C 4.580 212.736,4.400 213.546,4.400 214.400 C 4.400 215.254,4.220 216.064,4.000 216.200 C 3.780 216.336,3.600 217.427,3.600 218.624 C 3.600 219.821,3.420 220.800,3.200 220.800 C 2.975 220.800,2.800 221.925,2.800 223.376 C 2.800 224.793,2.620 226.064,2.400 226.200 C 2.180 226.336,2.000 227.866,2.000 229.600 C 2.000 231.334,1.820 232.864,1.600 233.000 C 1.053 233.338,1.053 261.462,1.600 261.800 C 1.820 261.936,2.000 263.556,2.000 265.400 C 2.000 267.244,2.180 268.864,2.400 269.000 C 2.620 269.136,2.800 270.407,2.800 271.824 C 2.800 273.275,2.975 274.400,3.200 274.400 C 3.420 274.400,3.600 275.379,3.600 276.576 C 3.600 277.773,3.780 278.864,4.000 279.000 C 4.220 279.136,4.400 279.957,4.400 280.824 C 4.400 281.691,4.580 282.400,4.800 282.400 C 5.020 282.400,5.200 283.210,5.200 284.200 C 5.200 285.190,5.380 286.000,5.600 286.000 C 5.820 286.000,6.000 286.630,6.000 287.400 C 6.000 288.170,6.180 288.800,6.400 288.800 C 6.620 288.800,6.800 289.430,6.800 290.200 C 6.800 290.970,6.980 291.600,7.200 291.600 C 7.420 291.600,7.600 292.129,7.600 292.776 C 7.600 293.423,7.780 294.064,8.000 294.200 C 8.220 294.336,8.400 294.966,8.400 295.600 C 8.400 296.234,8.580 296.864,8.800 297.000 C 9.020 297.136,9.200 297.777,9.200 298.424 C 9.200 299.071,9.357 299.600,9.549 299.600 C 9.741 299.600,10.014 300.328,10.156 301.217 C 10.299 302.107,10.575 303.142,10.772 303.517 C 11.443 304.803,12.800 308.506,12.800 309.053 C 12.800 309.354,12.980 309.600,13.200 309.600 C 13.420 309.600,13.600 309.960,13.600 310.400 C 13.600 310.840,13.780 311.200,14.000 311.200 C 14.220 311.200,14.400 311.472,14.400 311.805 C 14.400 312.138,14.562 312.723,14.760 313.105 C 14.958 313.487,16.080 315.780,17.255 318.200 C 18.429 320.620,19.527 322.660,19.695 322.733 C 19.863 322.807,20.000 323.122,20.000 323.433 C 20.000 323.745,20.180 324.000,20.400 324.000 C 20.620 324.000,20.800 324.270,20.800 324.600 C 20.800 324.930,20.980 325.200,21.200 325.200 C 21.420 325.200,21.600 325.560,21.600 326.000 C 21.600 326.440,21.780 326.800,22.000 326.800 C 22.220 326.800,22.400 327.120,22.400 327.512 C 22.400 327.903,22.760 328.483,23.200 328.800 C 23.640 329.117,24.000 329.697,24.000 330.088 C 24.000 330.480,24.180 330.800,24.400 330.800 C 24.620 330.800,24.800 331.120,24.800 331.512 C 24.800 331.903,25.160 332.483,25.600 332.800 C 26.040 333.117,26.400 333.697,26.400 334.088 C 26.400 334.480,26.547 334.800,26.726 334.800 C 26.905 334.800,27.363 335.385,27.742 336.100 C 29.024 338.514,29.478 339.212,30.541 340.404 C 31.123 341.058,31.600 341.702,31.600 341.836 C 31.600 341.970,32.140 342.583,32.800 343.200 C 33.460 343.817,34.000 344.533,34.000 344.792 C 34.000 345.051,34.720 345.954,35.600 346.800 C 36.480 347.646,37.200 348.508,37.200 348.718 C 37.200 349.721,55.079 367.600,56.082 367.600 C 56.292 367.600,57.154 368.320,58.000 369.200 C 58.846 370.080,59.639 370.800,59.764 370.800 C 60.082 370.800,64.726 374.357,65.012 374.820 C 65.142 375.029,65.557 375.200,65.935 375.200 C 66.314 375.200,66.883 375.560,67.200 376.000 C 67.517 376.440,68.057 376.800,68.400 376.800 C 68.743 376.800,69.283 377.160,69.600 377.600 C 69.917 378.040,70.457 378.400,70.800 378.400 C 71.143 378.400,71.683 378.760,72.000 379.200 C 72.317 379.640,72.897 380.000,73.288 380.000 C 73.680 380.000,74.000 380.180,74.000 380.400 C 74.000 380.620,74.294 380.800,74.653 380.800 C 75.012 380.800,75.597 381.118,75.953 381.507 C 76.309 381.896,77.500 382.661,78.600 383.207 C 79.700 383.753,80.660 384.335,80.733 384.500 C 80.807 384.665,81.212 384.800,81.633 384.800 C 82.055 384.800,82.400 384.980,82.400 385.200 C 82.400 385.420,82.760 385.600,83.200 385.600 C 83.640 385.600,84.000 385.780,84.000 386.000 C 84.000 386.220,84.360 386.400,84.800 386.400 C 85.240 386.400,85.600 386.580,85.600 386.800 C 85.600 387.020,85.960 387.200,86.400 387.200 C 86.840 387.200,87.200 387.380,87.200 387.600 C 87.200 387.820,87.560 388.000,88.000 388.000 C 88.440 388.000,88.800 388.180,88.800 388.400 C 88.800 388.620,89.072 388.800,89.405 388.800 C 89.738 388.800,90.323 388.957,90.705 389.150 C 93.899 390.759,95.090 391.237,96.441 391.453 C 97.299 391.590,98.000 391.859,98.000 392.051 C 98.000 392.243,98.540 392.400,99.200 392.400 C 99.860 392.400,100.400 392.580,100.400 392.800 C 100.400 393.020,100.940 393.200,101.600 393.200 C 102.260 393.200,102.800 393.380,102.800 393.600 C 102.800 393.820,103.340 394.000,104.000 394.000 C 104.660 394.000,105.200 394.180,105.200 394.400 C 105.200 394.620,105.740 394.800,106.400 394.800 C 107.060 394.800,107.600 394.980,107.600 395.200 C 107.600 395.420,108.219 395.600,108.976 395.600 C 109.733 395.600,110.464 395.780,110.600 396.000 C 110.736 396.220,111.467 396.400,112.224 396.400 C 112.981 396.400,113.600 396.580,113.600 396.800 C 113.600 397.020,114.320 397.200,115.200 397.200 C 116.080 397.200,116.800 397.380,116.800 397.600 C 116.800 397.820,117.689 398.000,118.776 398.000 C 119.863 398.000,120.864 398.180,121.000 398.400 C 121.136 398.620,122.191 398.800,123.344 398.800 C 124.497 398.800,125.665 399.025,125.940 399.300 C 126.336 399.696,141.743 399.800,200.287 399.800 C 259.008 399.800,274.167 399.698,274.300 399.300 C 274.406 398.983,275.251 398.800,276.610 398.800 C 277.788 398.800,278.864 398.620,279.000 398.400 C 279.136 398.180,280.137 398.000,281.224 398.000 C 282.311 398.000,283.200 397.820,283.200 397.600 C 283.200 397.380,283.920 397.200,284.800 397.200 C 285.680 397.200,286.400 397.020,286.400 396.800 C 286.400 396.580,287.120 396.400,288.000 396.400 C 288.880 396.400,289.600 396.220,289.600 396.000 C 289.600 395.780,290.230 395.600,291.000 395.600 C 291.770 395.600,292.400 395.420,292.400 395.200 C 292.400 394.980,292.940 394.800,293.600 394.800 C 294.260 394.800,294.800 394.620,294.800 394.400 C 294.800 394.180,295.340 394.000,296.000 394.000 C 296.660 394.000,297.200 393.820,297.200 393.600 C 297.200 393.380,297.740 393.200,298.400 393.200 C 299.060 393.200,299.600 393.020,299.600 392.800 C 299.600 392.580,300.140 392.400,300.800 392.400 C 301.460 392.400,302.000 392.243,302.000 392.051 C 302.000 391.859,302.718 391.587,303.595 391.447 C 304.472 391.307,305.827 390.834,306.607 390.396 C 307.386 389.958,308.379 389.600,308.812 389.600 C 309.245 389.600,309.600 389.420,309.600 389.200 C 309.600 388.980,309.960 388.800,310.400 388.800 C 310.840 388.800,311.200 388.620,311.200 388.400 C 311.200 388.180,311.560 388.000,312.000 388.000 C 312.440 388.000,312.800 387.820,312.800 387.600 C 312.800 387.380,313.160 387.200,313.600 387.200 C 314.040 387.200,314.400 387.020,314.400 386.800 C 314.400 386.580,314.760 386.400,315.200 386.400 C 315.640 386.400,316.000 386.220,316.000 386.000 C 316.000 385.780,316.360 385.600,316.800 385.600 C 317.240 385.600,317.600 385.420,317.600 385.200 C 317.600 384.980,317.960 384.800,318.400 384.800 C 318.840 384.800,319.200 384.620,319.200 384.400 C 319.200 384.180,319.560 384.000,320.000 384.000 C 320.440 384.000,320.800 383.854,320.800 383.675 C 320.800 383.496,321.430 383.102,322.200 382.800 C 322.970 382.498,323.600 382.104,323.600 381.925 C 323.600 381.746,323.870 381.600,324.200 381.600 C 324.530 381.600,324.800 381.420,324.800 381.200 C 324.800 380.980,325.070 380.800,325.400 380.800 C 325.730 380.800,326.000 380.620,326.000 380.400 C 326.000 380.180,326.320 380.000,326.712 380.000 C 327.103 380.000,327.683 379.640,328.000 379.200 C 328.317 378.760,328.857 378.400,329.200 378.400 C 329.543 378.400,330.083 378.040,330.400 377.600 C 330.717 377.160,331.257 376.800,331.600 376.800 C 331.943 376.800,332.483 376.440,332.800 376.000 C 333.117 375.560,333.669 375.200,334.027 375.200 C 334.385 375.200,335.110 374.819,335.639 374.354 C 336.167 373.889,337.050 373.214,337.600 372.854 C 338.938 371.978,339.740 371.316,341.903 369.300 C 342.907 368.365,343.887 367.600,344.083 367.600 C 344.279 367.600,345.681 366.340,347.200 364.800 C 348.719 363.260,350.106 362.000,350.282 362.000 C 350.563 362.000,354.614 357.893,360.826 351.308 C 361.912 350.157,362.800 349.018,362.800 348.777 C 362.800 348.535,363.520 347.646,364.400 346.800 C 365.280 345.954,366.000 345.095,366.000 344.891 C 366.000 344.686,366.540 343.954,367.200 343.263 C 367.860 342.572,368.400 341.906,368.400 341.782 C 368.400 341.658,368.939 340.981,369.598 340.278 C 370.257 339.575,370.797 338.775,370.798 338.500 C 370.799 338.225,370.950 338.000,371.132 338.000 C 371.315 338.000,371.720 337.505,372.032 336.900 C 372.345 336.295,372.915 335.451,373.300 335.025 C 373.685 334.598,374.000 334.090,374.000 333.896 C 374.000 333.702,374.270 333.273,374.600 332.943 C 374.930 332.613,375.200 331.996,375.200 331.571 C 375.200 331.147,375.380 330.800,375.600 330.800 C 375.820 330.800,376.000 330.480,376.000 330.088 C 376.000 329.697,376.360 329.117,376.800 328.800 C 377.240 328.483,377.600 327.903,377.600 327.512 C 377.600 327.120,377.780 326.800,378.000 326.800 C 378.220 326.800,378.400 326.440,378.400 326.000 C 378.400 325.560,378.580 325.200,378.800 325.200 C 379.020 325.200,379.200 324.930,379.200 324.600 C 379.200 324.270,379.380 324.000,379.600 324.000 C 379.820 324.000,380.000 323.730,380.000 323.400 C 380.000 323.070,380.146 322.800,380.325 322.800 C 380.504 322.800,380.898 322.170,381.200 321.400 C 381.502 320.630,381.896 320.000,382.075 320.000 C 382.254 320.000,382.400 319.640,382.400 319.200 C 382.400 318.760,382.580 318.400,382.800 318.400 C 383.020 318.400,383.200 318.040,383.200 317.600 C 383.200 317.160,383.380 316.800,383.600 316.800 C 383.820 316.800,384.000 316.528,384.000 316.195 C 384.000 315.862,384.180 315.232,384.400 314.795 C 384.620 314.358,384.980 313.642,385.200 313.205 C 385.420 312.768,385.600 312.138,385.600 311.805 C 385.600 311.472,385.780 311.200,386.000 311.200 C 386.220 311.200,386.400 310.840,386.400 310.400 C 386.400 309.960,386.580 309.600,386.800 309.600 C 387.020 309.600,387.200 309.328,387.200 308.995 C 387.200 308.662,387.380 308.032,387.600 307.595 C 387.820 307.158,388.180 306.442,388.400 306.005 C 388.620 305.568,388.800 304.848,388.800 304.405 C 388.800 303.962,388.980 303.600,389.200 303.600 C 389.420 303.600,389.600 303.238,389.600 302.795 C 389.600 302.352,389.774 301.677,389.987 301.295 C 390.627 300.147,391.600 296.839,391.600 295.810 C 391.600 295.280,391.780 294.736,392.000 294.600 C 392.220 294.464,392.400 293.733,392.400 292.976 C 392.400 292.219,392.580 291.600,392.800 291.600 C 393.020 291.600,393.200 290.970,393.200 290.200 C 393.200 289.430,393.380 288.800,393.600 288.800 C 393.820 288.800,394.000 288.271,394.000 287.624 C 394.000 286.977,394.180 286.336,394.400 286.200 C 394.620 286.064,394.800 285.153,394.800 284.176 C 394.800 283.199,394.980 282.400,395.200 282.400 C 395.420 282.400,395.600 281.691,395.600 280.824 C 395.600 279.957,395.780 279.136,396.000 279.000 C 396.220 278.864,396.400 277.773,396.400 276.576 C 396.400 275.379,396.580 274.400,396.800 274.400 C 397.025 274.400,397.200 273.275,397.200 271.824 C 397.200 270.407,397.380 269.136,397.600 269.000 C 397.820 268.864,398.000 267.233,398.000 265.376 C 398.000 263.392,398.165 262.000,398.400 262.000 C 398.659 262.000,398.800 256.941,398.800 247.624 C 398.800 238.471,398.655 233.157,398.400 233.000 C 398.180 232.864,398.000 231.334,398.000 229.600 C 398.000 227.866,397.820 226.336,397.600 226.200 C 397.380 226.064,397.200 224.793,397.200 223.376 C 397.200 221.925,397.025 220.800,396.800 220.800 C 396.578 220.800,396.400 219.733,396.400 218.400 C 396.400 217.067,396.222 216.000,396.000 216.000 C 395.780 216.000,395.600 215.291,395.600 214.424 C 395.600 213.557,395.420 212.736,395.200 212.600 C 394.980 212.464,394.800 211.643,394.800 210.776 C 394.800 209.909,394.620 209.200,394.400 209.200 C 394.180 209.200,394.000 208.480,394.000 207.600 C 394.000 206.720,393.820 206.000,393.600 206.000 C 393.380 206.000,393.200 205.370,393.200 204.600 C 393.200 203.830,393.020 203.200,392.800 203.200 C 392.580 203.200,392.400 202.570,392.400 201.800 C 392.400 201.030,392.241 200.400,392.046 200.400 C 391.851 200.400,391.569 199.413,391.418 198.206 C 391.267 197.000,390.977 195.909,390.772 195.783 C 390.567 195.656,390.400 195.113,390.400 194.576 C 390.400 194.039,390.220 193.600,390.000 193.600 C 389.780 193.600,389.600 193.161,389.600 192.624 C 389.600 192.087,389.420 191.536,389.200 191.400 C 388.980 191.264,388.800 190.803,388.800 190.376 C 388.800 189.949,388.620 189.600,388.400 189.600 C 388.180 189.600,388.000 189.161,388.000 188.624 C 388.000 188.087,387.820 187.536,387.600 187.400 C 387.380 187.264,387.200 186.803,387.200 186.376 C 387.200 185.949,387.053 185.600,386.872 185.600 C 386.692 185.600,386.300 184.700,386.000 183.600 C 385.700 182.500,385.308 181.600,385.128 181.600 C 384.947 181.600,384.800 181.240,384.800 180.800 C 384.800 180.360,384.654 180.000,384.475 180.000 C 384.296 180.000,383.902 179.370,383.600 178.600 C 383.298 177.830,382.904 177.200,382.725 177.200 C 382.546 177.200,382.400 176.840,382.400 176.400 C 382.400 175.960,382.220 175.600,382.000 175.600 C 381.780 175.600,381.600 175.240,381.600 174.800 C 381.600 174.360,381.420 174.000,381.200 174.000 C 380.980 174.000,380.800 173.640,380.800 173.200 C 380.800 172.760,380.620 172.400,380.400 172.400 C 380.180 172.400,380.000 172.040,380.000 171.600 C 380.000 171.160,379.820 170.800,379.600 170.800 C 379.380 170.800,379.200 170.440,379.200 170.000 C 379.200 169.560,379.020 169.200,378.800 169.200 C 378.580 169.200,378.400 168.930,378.400 168.600 C 378.400 168.270,378.220 168.000,378.000 168.000 C 377.780 168.000,377.600 167.730,377.600 167.400 C 377.600 167.070,377.420 166.800,377.200 166.800 C 376.980 166.800,376.800 166.440,376.800 166.000 C 376.800 165.560,376.641 165.200,376.446 165.200 C 376.251 165.200,375.775 164.525,375.388 163.700 C 374.608 162.035,372.368 158.674,371.900 158.467 C 371.735 158.393,371.600 158.123,371.599 157.867 C 371.599 157.610,371.059 156.770,370.400 156.000 C 369.741 155.230,369.201 154.463,369.201 154.296 C 369.200 154.129,368.660 153.428,368.000 152.737 C 367.340 152.046,366.800 151.310,366.800 151.101 C 366.800 150.892,366.260 150.217,365.600 149.600 C 364.940 148.983,364.400 148.281,364.400 148.040 C 364.400 147.798,364.220 147.600,364.000 147.600 C 363.780 147.600,363.600 147.406,363.600 147.169 C 363.600 146.931,362.880 146.046,362.000 145.200 C 361.120 144.354,360.400 143.565,360.400 143.445 C 360.400 142.811,350.223 132.440,347.600 130.401 C 346.610 129.632,345.418 128.642,344.950 128.201 C 344.483 127.760,343.602 127.040,342.992 126.600 C 342.382 126.160,341.244 125.215,340.463 124.500 C 339.682 123.785,338.881 123.200,338.682 123.200 C 338.484 123.200,337.817 122.660,337.200 122.000 C 336.583 121.340,335.831 120.800,335.528 120.800 C 335.225 120.800,334.717 120.440,334.400 120.000 C 334.083 119.560,333.569 119.200,333.259 119.200 C 332.948 119.200,332.403 118.884,332.047 118.497 C 331.691 118.111,330.905 117.540,330.300 117.230 C 329.695 116.919,329.200 116.515,329.200 116.332 C 329.200 116.150,328.880 116.000,328.488 116.000 C 328.097 116.000,327.517 115.640,327.200 115.200 C 326.883 114.760,326.303 114.400,325.912 114.400 C 325.520 114.400,325.200 114.220,325.200 114.000 C 325.200 113.780,325.038 113.600,324.841 113.600 C 324.643 113.600,323.287 112.874,321.827 111.987 C 320.367 111.100,318.639 110.268,317.986 110.137 C 317.334 110.007,316.800 109.742,316.800 109.550 C 316.800 109.358,316.440 109.200,316.000 109.200 C 315.560 109.200,315.200 109.020,315.200 108.800 C 315.200 108.580,314.840 108.400,314.400 108.400 C 313.960 108.400,313.600 108.220,313.600 108.000 C 313.600 107.780,313.240 107.600,312.800 107.600 C 312.360 107.600,312.000 107.420,312.000 107.200 C 312.000 106.980,311.640 106.800,311.200 106.800 C 310.760 106.800,310.400 106.620,310.400 106.400 C 310.400 106.180,309.950 106.000,309.400 106.000 C 308.850 106.000,308.400 105.820,308.400 105.600 C 308.400 105.380,308.085 105.194,307.700 105.187 C 305.347 105.145,305.893 102.857,309.195 98.917 C 309.418 98.651,309.600 98.156,309.600 97.817 C 309.600 97.478,309.780 97.200,310.000 97.200 C 310.220 97.200,310.400 96.922,310.400 96.583 C 310.400 96.244,310.760 95.580,311.200 95.108 C 311.640 94.636,312.000 94.013,312.000 93.725 C 312.000 93.436,312.180 93.200,312.400 93.200 C 312.620 93.200,312.800 92.840,312.800 92.400 C 312.800 91.960,312.980 91.600,313.200 91.600 C 313.420 91.600,313.600 91.150,313.600 90.600 C 313.600 90.050,313.780 89.600,314.000 89.600 C 314.220 89.600,314.400 89.240,314.400 88.800 C 314.400 88.360,314.580 88.000,314.800 88.000 C 315.020 88.000,315.200 87.460,315.200 86.800 C 315.200 86.140,315.380 85.600,315.600 85.600 C 315.820 85.600,316.000 85.060,316.000 84.400 C 316.000 83.740,316.180 83.200,316.400 83.200 C 316.620 83.200,316.800 82.671,316.800 82.024 C 316.800 81.377,316.980 80.736,317.200 80.600 C 317.420 80.464,317.600 79.553,317.600 78.576 C 317.600 77.599,317.780 76.800,318.000 76.800 C 318.220 76.800,318.400 75.990,318.400 75.000 C 318.400 74.010,318.220 73.200,318.000 73.200 C 317.780 73.200,317.600 72.905,317.600 72.544 C 317.600 71.124,312.961 69.969,312.200 71.200 C 312.064 71.420,311.513 71.600,310.976 71.600 C 310.439 71.600,310.000 71.780,310.000 72.000 C 310.000 72.220,309.460 72.400,308.800 72.400 C 308.140 72.400,307.600 72.580,307.600 72.800 C 307.600 73.020,306.880 73.200,306.000 73.200 C 305.120 73.200,304.400 73.380,304.400 73.600 C 304.400 73.820,303.421 74.000,302.224 74.000 C 301.027 74.000,299.936 74.180,299.800 74.400 C 299.664 74.620,298.033 74.800,296.176 74.800 C 294.192 74.800,292.800 74.965,292.800 75.200 C 292.800 75.458,288.467 75.600,280.600 75.600 C 272.733 75.600,268.400 75.458,268.400 75.200 C 268.400 74.946,265.267 74.800,259.800 74.800 C 254.333 74.800,251.200 74.946,251.200 75.200 C 251.200 75.443,249.400 75.600,246.600 75.600 C 243.800 75.600,242.000 75.757,242.000 76.000 C 242.000 76.222,240.933 76.400,239.600 76.400 C 238.280 76.400,237.200 76.554,237.200 76.743 C 237.200 76.932,236.122 77.199,234.805 77.336 C 233.488 77.474,232.093 77.749,231.705 77.947 C 231.023 78.295,230.459 78.537,227.700 79.664 C 226.985 79.956,226.400 80.331,226.400 80.498 C 226.400 80.664,226.040 80.800,225.600 80.800 C 225.160 80.800,224.800 80.980,224.800 81.200 C 224.800 81.420,224.564 81.600,224.275 81.600 C 223.987 81.600,223.364 81.960,222.892 82.400 C 222.420 82.840,221.822 83.200,221.564 83.200 C 221.305 83.200,220.803 83.516,220.447 83.903 C 220.091 84.289,219.305 84.860,218.700 85.170 C 218.095 85.481,217.600 85.885,217.600 86.068 C 217.600 86.250,217.330 86.400,217.000 86.400 C 216.670 86.400,216.400 86.580,216.400 86.800 C 216.400 87.020,216.212 87.200,215.983 87.200 C 215.754 87.200,215.180 87.560,214.708 88.000 C 214.236 88.440,213.613 88.800,213.325 88.800 C 213.036 88.800,212.800 88.980,212.800 89.200 C 212.800 89.420,212.530 89.600,212.200 89.600 C 211.870 89.600,211.600 89.780,211.600 90.000 C 211.600 90.220,211.330 90.400,211.000 90.400 C 210.497 90.400,210.400 89.556,210.400 85.200 C 210.400 82.000,210.554 80.000,210.800 80.000 C 211.020 80.000,211.200 79.100,211.200 78.000 C 211.200 76.900,211.380 76.000,211.600 76.000 C 211.820 76.000,212.000 75.460,212.000 74.800 C 212.000 74.140,212.180 73.600,212.400 73.600 C 212.620 73.600,212.800 73.060,212.800 72.400 C 212.800 71.740,212.980 71.200,213.200 71.200 C 213.420 71.200,213.600 70.750,213.600 70.200 C 213.600 69.650,213.780 69.200,214.000 69.200 C 214.220 69.200,214.400 68.955,214.400 68.656 C 214.400 67.999,216.876 63.055,217.300 62.867 C 217.465 62.793,217.600 62.388,217.600 61.967 C 217.600 61.545,217.751 61.200,217.936 61.200 C 218.120 61.200,218.470 60.764,218.713 60.231 C 218.956 59.698,219.423 58.933,219.752 58.531 C 224.243 53.037,226.527 50.400,226.794 50.400 C 226.973 50.400,228.038 49.500,229.161 48.400 C 230.285 47.300,231.433 46.400,231.714 46.400 C 231.994 46.400,232.483 46.040,232.800 45.600 C 233.117 45.160,233.657 44.800,234.000 44.800 C 234.343 44.800,234.883 44.440,235.200 44.000 C 235.517 43.560,236.097 43.200,236.488 43.200 C 236.880 43.200,237.200 43.020,237.200 42.800 C 237.200 42.580,237.560 42.400,238.000 42.400 C 238.440 42.400,238.800 42.220,238.800 42.000 C 238.800 41.780,239.007 41.600,239.260 41.600 C 239.953 41.600,244.000 39.480,244.000 39.116 C 244.000 38.942,244.360 38.800,244.800 38.800 C 245.240 38.800,245.600 38.650,245.600 38.468 C 245.600 38.285,246.095 37.880,246.700 37.568 C 247.305 37.255,248.149 36.685,248.575 36.300 C 249.002 35.915,249.509 35.600,249.701 35.600 C 250.253 35.600,253.917 31.692,254.200 30.802 C 254.339 30.361,254.590 30.000,254.756 30.000 C 254.922 30.000,255.461 29.055,255.955 27.900 C 256.448 26.745,257.020 25.487,257.226 25.105 C 257.432 24.723,257.600 23.904,257.600 23.285 C 257.600 22.666,257.800 21.960,258.045 21.715 C 258.715 21.045,257.828 15.542,256.678 13.237 C 256.305 12.489,256.000 11.717,256.000 11.520 C 256.000 11.324,255.550 10.714,255.000 10.164 C 254.450 9.614,254.000 9.007,254.000 8.814 C 254.000 8.363,250.966 5.200,250.531 5.199 C 250.349 5.199,249.570 4.659,248.800 4.000 C 248.030 3.341,247.175 2.801,246.900 2.801 C 246.625 2.800,246.400 2.620,246.400 2.400 C 246.400 2.180,246.040 2.000,245.600 2.000 C 245.160 2.000,244.800 1.820,244.800 1.600 C 244.800 1.380,244.275 1.200,243.633 1.200 C 242.992 1.200,242.393 0.978,242.302 0.706 C 242.136 0.207,227.243 -0.134,223.300 0.271 M237.930 7.008 C 246.646 9.063,253.162 17.227,250.457 22.705 C 248.184 27.310,246.991 28.738,243.490 31.046 C 240.852 32.785,232.482 37.600,232.098 37.600 C 231.419 37.600,224.020 43.188,221.341 45.724 C 199.264 66.622,197.367 100.893,216.973 124.657 C 219.844 128.137,221.359 128.734,223.346 127.171 C 225.011 125.862,224.782 124.199,222.581 121.621 C 217.503 115.672,213.875 109.057,211.827 102.011 C 210.815 98.530,210.798 98.590,213.155 97.262 C 213.680 96.967,214.760 96.361,215.555 95.916 C 216.350 95.472,218.440 94.109,220.200 92.888 C 235.266 82.435,236.361 82.203,270.600 82.194 C 287.542 82.190,295.046 82.048,297.200 81.690 C 298.850 81.416,301.460 80.995,303.000 80.755 C 304.540 80.514,306.322 80.156,306.960 79.959 C 308.470 79.491,310.000 79.500,310.000 79.976 C 310.000 83.071,302.905 96.303,298.633 101.175 C 288.159 113.120,276.339 120.539,260.748 124.957 C 255.140 126.545,255.982 129.978,262.628 132.630 C 283.858 141.102,301.115 155.619,311.944 174.112 C 313.075 176.044,314.000 177.691,314.000 177.773 C 314.000 177.854,314.720 179.465,315.600 181.352 C 316.480 183.239,317.200 185.046,317.200 185.368 C 317.200 185.690,317.359 186.051,317.552 186.170 C 317.746 186.290,318.003 186.796,318.124 187.294 C 318.245 187.792,318.521 188.830,318.738 189.600 C 320.902 197.306,321.179 199.200,320.145 199.201 C 318.125 199.202,306.131 197.446,301.400 196.457 C 284.573 192.937,271.717 187.558,252.200 175.869 C 233.665 164.769,222.351 160.800,209.244 160.800 C 202.753 160.800,195.429 164.373,188.200 171.066 C 173.883 184.323,156.352 194.387,142.000 197.591 C 140.507 197.925,135.389 198.978,133.400 199.361 C 127.673 200.464,112.360 201.127,111.697 200.300 C 110.604 198.939,110.813 187.702,112.040 181.800 C 113.232 176.065,114.311 172.206,115.394 169.800 C 115.691 169.140,116.255 167.790,116.646 166.800 C 119.264 160.180,126.517 149.423,133.452 141.877 C 138.797 136.060,140.792 133.032,140.797 130.725 C 140.804 127.632,131.354 117.338,124.019 112.447 C 115.344 106.664,108.587 104.081,91.400 99.979 C 82.684 97.898,76.664 95.620,77.072 94.557 C 77.312 93.931,83.527 91.061,93.000 87.200 C 118.664 76.742,146.126 75.723,166.000 84.492 C 172.988 87.575,180.688 91.901,180.961 92.897 C 181.037 93.174,181.308 94.570,181.564 96.000 C 183.277 105.582,186.724 116.168,190.872 124.592 C 192.196 127.279,192.528 127.585,194.126 127.594 C 197.829 127.614,198.050 125.799,195.166 119.088 C 188.775 104.217,186.010 91.117,186.003 75.677 C 186.000 68.848,186.167 66.729,187.235 60.000 C 189.047 48.589,194.023 35.307,199.247 27.938 C 199.661 27.354,200.000 26.771,200.000 26.642 C 200.000 26.513,200.621 25.593,201.381 24.598 C 212.112 10.540,225.526 4.084,237.930 7.008 M104.481 109.566 C 104.987 109.767,106.930 110.522,108.800 111.244 C 118.111 114.839,128.122 122.180,133.337 129.238 C 134.850 131.284,134.355 132.184,127.862 139.200 C 126.946 140.190,125.705 141.659,125.104 142.465 C 124.504 143.271,123.784 144.176,123.506 144.475 C 119.713 148.557,110.400 164.145,110.400 166.413 C 110.400 166.632,110.241 167.123,110.047 167.505 C 106.370 174.733,104.217 189.840,105.331 200.600 C 105.938 206.463,106.370 206.795,113.400 206.796 C 138.443 206.800,159.308 200.507,177.164 187.565 C 182.293 183.848,192.674 175.514,193.600 174.371 C 194.292 173.517,200.880 168.994,202.749 168.089 C 207.077 165.995,218.045 166.832,227.267 169.959 C 232.264 171.653,244.032 177.588,248.062 180.447 C 248.646 180.861,249.217 181.200,249.332 181.200 C 249.447 181.200,250.949 182.062,252.671 183.115 C 257.031 185.784,260.381 187.625,265.445 190.140 C 269.513 192.160,270.843 192.777,274.400 194.291 C 275.170 194.619,276.323 195.138,276.961 195.444 C 277.600 195.750,278.368 196.000,278.667 196.000 C 278.966 196.000,279.523 196.175,279.905 196.389 C 280.600 196.777,288.782 199.487,291.800 200.329 C 304.191 203.783,324.334 206.287,326.500 204.643 C 328.084 203.441,326.922 195.238,323.887 186.200 C 321.372 178.713,314.247 164.926,312.000 163.200 C 311.856 163.090,311.294 162.336,310.750 161.525 C 306.881 155.758,297.972 147.033,289.381 140.596 C 284.935 137.265,282.571 135.813,275.055 131.800 C 269.314 128.735,269.121 128.495,271.667 127.590 C 276.213 125.974,284.630 121.321,289.502 117.730 C 292.794 115.304,293.513 114.715,297.129 111.481 C 298.936 109.866,299.849 109.289,300.141 109.581 C 300.372 109.812,300.796 110.000,301.084 110.000 C 301.373 110.000,302.462 110.381,303.504 110.847 C 304.547 111.312,306.030 111.962,306.800 112.290 C 332.507 123.245,356.723 145.233,372.117 171.600 C 377.127 180.182,383.934 196.117,386.042 204.200 C 386.214 204.860,386.557 206.120,386.804 207.000 C 389.591 216.929,391.200 226.836,392.046 239.270 C 393.040 253.902,390.926 273.686,386.827 288.100 C 386.592 288.925,386.240 290.185,386.043 290.900 C 376.470 325.796,350.903 358.306,318.400 376.913 C 315.800 378.402,307.017 382.655,304.600 383.596 C 303.280 384.110,302.020 384.649,301.800 384.793 C 301.580 384.938,300.590 385.301,299.600 385.600 C 298.610 385.899,297.620 386.259,297.400 386.400 C 297.180 386.541,296.190 386.892,295.200 387.182 C 294.210 387.471,292.410 388.025,291.200 388.415 C 287.905 389.474,280.476 391.227,276.200 391.955 C 274.880 392.179,273.170 392.473,272.400 392.607 C 265.311 393.844,257.998 393.983,200.000 393.986 C 133.880 393.990,131.032 393.880,118.200 390.821 C 117.320 390.611,115.790 390.264,114.800 390.050 C 113.810 389.835,112.190 389.402,111.200 389.088 C 110.210 388.773,108.590 388.288,107.600 388.011 C 100.277 385.958,86.900 380.100,80.091 375.963 C 78.676 375.103,77.440 374.400,77.344 374.400 C 77.017 374.400,69.811 369.472,66.600 367.052 C 50.102 354.622,37.328 340.000,26.716 321.400 C 22.395 313.825,16.153 298.904,13.957 290.900 C 13.760 290.185,13.408 288.925,13.173 288.100 C 7.946 269.721,6.579 249.680,9.018 227.200 C 9.126 226.210,9.382 224.500,9.589 223.400 C 9.795 222.300,10.162 220.230,10.406 218.800 C 10.649 217.370,11.010 215.570,11.208 214.800 C 11.916 212.044,12.877 208.176,13.195 206.800 C 14.827 199.730,19.537 187.586,24.053 178.800 C 26.844 173.370,27.331 172.501,31.000 166.423 C 32.939 163.210,40.565 152.795,43.000 150.035 C 45.761 146.905,48.334 144.130,50.421 142.033 C 64.653 127.726,79.545 117.798,98.000 110.313 C 98.550 110.090,99.270 109.759,99.600 109.577 C 100.420 109.126,103.359 109.119,104.481 109.566 " stroke="none" fill="#2d3c5b" fill-rule="evenodd"></path><path id="path2" d="M100.000 109.990 C 99.247 110.421,97.234 111.288,94.430 112.390 C 91.424 113.572,81.357 118.688,79.328 120.065 C 78.408 120.689,77.545 121.200,77.410 121.200 C 76.711 121.200,66.905 128.139,62.200 131.962 C 55.956 137.037,51.078 141.713,46.095 147.400 C 40.518 153.765,40.341 153.977,39.212 155.600 C 38.677 156.370,38.126 157.090,37.988 157.200 C 37.045 157.953,29.987 168.862,26.990 174.200 C 22.334 182.492,16.919 195.434,14.607 203.800 C 13.172 208.991,12.319 212.305,11.937 214.167 C 11.707 215.285,11.360 216.920,11.165 217.800 C 7.701 233.458,7.595 261.848,10.945 276.200 C 11.048 276.640,11.353 278.080,11.623 279.400 C 13.323 287.708,17.308 300.295,20.677 308.000 C 22.152 311.375,26.293 319.616,27.682 321.941 C 28.517 323.338,29.200 324.562,29.200 324.660 C 29.200 325.329,39.885 340.770,41.199 342.000 C 41.317 342.110,41.925 342.830,42.551 343.600 C 43.177 344.370,46.161 347.520,49.182 350.600 C 54.032 355.544,56.118 357.537,60.537 361.449 C 62.052 362.791,71.035 369.458,72.467 370.303 C 73.090 370.671,73.600 371.114,73.600 371.286 C 73.600 371.459,73.836 371.600,74.125 371.600 C 74.413 371.600,75.007 371.915,75.445 372.300 C 76.192 372.957,76.665 373.259,78.900 374.500 C 79.395 374.775,79.890 375.091,80.000 375.202 C 80.487 375.695,91.434 381.159,93.600 381.991 C 94.370 382.286,95.171 382.679,95.380 382.864 C 95.589 383.049,95.996 383.200,96.284 383.200 C 96.573 383.200,97.572 383.545,98.504 383.966 C 99.437 384.388,100.920 384.965,101.800 385.250 C 102.680 385.534,103.580 385.877,103.800 386.011 C 104.020 386.146,105.010 386.486,106.000 386.767 C 106.990 387.048,108.113 387.440,108.495 387.639 C 108.877 387.838,109.631 388.000,110.171 388.000 C 110.711 388.000,111.264 388.180,111.400 388.400 C 111.536 388.620,112.166 388.800,112.800 388.800 C 113.434 388.800,114.064 388.980,114.200 389.200 C 114.336 389.420,115.146 389.600,116.000 389.600 C 116.854 389.600,117.664 389.780,117.800 390.000 C 117.936 390.220,118.721 390.400,119.544 390.400 C 120.367 390.400,121.211 390.563,121.420 390.761 C 121.629 390.960,122.700 391.234,123.800 391.370 C 124.900 391.507,127.150 391.799,128.800 392.019 C 137.767 393.218,144.488 393.343,200.000 393.341 C 255.376 393.339,263.336 393.192,271.400 392.021 C 272.940 391.797,275.100 391.504,276.200 391.368 C 277.300 391.233,278.371 390.960,278.580 390.761 C 278.789 390.563,279.723 390.400,280.656 390.400 C 281.589 390.400,282.464 390.220,282.600 390.000 C 282.736 389.780,283.456 389.600,284.200 389.600 C 284.944 389.600,285.664 389.420,285.800 389.200 C 285.936 388.980,286.566 388.800,287.200 388.800 C 287.834 388.800,288.464 388.620,288.600 388.400 C 288.736 388.180,289.289 388.000,289.829 388.000 C 290.369 388.000,291.123 387.838,291.505 387.639 C 291.887 387.440,293.010 387.049,294.000 386.769 C 294.990 386.490,295.971 386.112,296.180 385.930 C 296.389 385.749,296.963 385.600,297.456 385.600 C 297.949 385.600,298.464 385.420,298.600 385.200 C 298.736 384.980,299.109 384.800,299.428 384.800 C 299.747 384.800,300.772 384.463,301.704 384.052 C 302.637 383.640,304.570 382.811,306.000 382.210 C 309.788 380.617,315.379 377.858,315.533 377.505 C 315.607 377.337,316.012 377.200,316.433 377.200 C 316.855 377.200,317.200 377.054,317.200 376.875 C 317.200 376.696,317.830 376.302,318.600 376.000 C 319.370 375.698,320.000 375.325,320.000 375.172 C 320.000 375.019,320.315 374.793,320.700 374.671 C 321.609 374.383,323.553 373.188,324.558 372.300 C 324.994 371.915,325.587 371.600,325.875 371.600 C 326.164 371.600,326.400 371.450,326.400 371.268 C 326.400 371.085,326.892 370.680,327.494 370.368 C 328.096 370.055,328.861 369.591,329.194 369.336 C 329.527 369.081,331.780 367.387,334.200 365.571 C 336.620 363.756,338.870 361.983,339.200 361.631 C 339.530 361.279,340.485 360.481,341.322 359.859 C 344.384 357.579,356.796 344.612,359.186 341.195 C 359.722 340.428,360.269 339.710,360.400 339.600 C 360.531 339.490,361.071 338.770,361.600 338.000 C 362.129 337.230,362.669 336.510,362.801 336.400 C 362.933 336.290,363.582 335.390,364.244 334.400 C 364.905 333.410,366.110 331.657,366.923 330.504 C 367.735 329.351,368.400 328.299,368.400 328.166 C 368.400 328.033,368.739 327.446,369.153 326.862 C 370.268 325.288,372.002 322.300,372.264 321.500 C 372.390 321.115,372.652 320.800,372.847 320.800 C 373.041 320.800,373.200 320.440,373.200 320.000 C 373.200 319.560,373.346 319.200,373.525 319.200 C 373.704 319.200,374.098 318.570,374.400 317.800 C 374.702 317.030,375.096 316.400,375.275 316.400 C 375.454 316.400,375.600 316.166,375.600 315.880 C 375.600 315.144,376.541 313.207,376.900 313.203 C 377.065 313.201,377.200 312.876,377.200 312.480 C 377.200 312.084,377.352 311.589,377.538 311.380 C 377.723 311.171,378.293 309.920,378.803 308.600 C 379.313 307.280,379.862 306.020,380.022 305.800 C 380.676 304.900,385.600 290.287,385.600 289.245 C 385.600 288.806,385.780 288.336,386.000 288.200 C 386.220 288.064,386.400 287.434,386.400 286.800 C 386.400 286.166,386.561 285.548,386.758 285.426 C 386.955 285.305,387.213 284.529,387.332 283.703 C 387.451 282.876,387.753 281.300,388.003 280.200 C 388.253 279.100,388.552 277.390,388.668 276.400 C 388.783 275.410,389.040 274.429,389.239 274.220 C 389.437 274.011,389.600 272.922,389.600 271.800 C 389.600 270.678,389.766 269.589,389.970 269.380 C 390.792 268.536,391.499 250.403,391.118 239.946 C 390.843 232.415,390.494 228.558,389.603 223.200 C 389.365 221.770,389.070 219.790,388.946 218.800 C 388.823 217.810,388.560 216.829,388.361 216.620 C 388.163 216.411,388.000 215.567,388.000 214.744 C 388.000 213.921,387.820 213.136,387.600 213.000 C 387.380 212.864,387.200 212.144,387.200 211.400 C 387.200 210.656,387.040 209.948,386.844 209.827 C 386.649 209.706,386.373 208.931,386.233 208.104 C 385.615 204.476,385.492 203.981,385.156 203.773 C 384.960 203.652,384.800 203.124,384.800 202.600 C 384.800 202.076,384.620 201.536,384.400 201.400 C 384.180 201.264,384.000 200.724,384.000 200.200 C 384.000 199.676,383.820 199.136,383.600 199.000 C 383.380 198.864,383.200 198.450,383.200 198.081 C 383.200 197.266,378.962 186.328,377.933 184.488 C 377.530 183.766,377.200 182.911,377.200 182.588 C 377.200 182.265,377.020 182.000,376.800 182.000 C 376.580 182.000,376.400 181.640,376.400 181.200 C 376.400 180.760,376.220 180.400,376.000 180.400 C 375.780 180.400,375.600 180.128,375.600 179.795 C 375.600 179.234,374.870 177.663,374.395 177.200 C 374.282 177.090,373.742 176.100,373.195 175.000 C 372.648 173.900,372.065 172.940,371.900 172.867 C 371.735 172.793,371.600 172.556,371.600 172.339 C 371.600 172.122,371.060 171.159,370.400 170.200 C 369.740 169.241,369.200 168.338,369.200 168.194 C 369.200 167.905,361.624 156.722,361.210 156.400 C 361.069 156.290,360.694 155.821,360.377 155.357 C 357.700 151.446,345.867 138.974,341.000 134.933 C 339.900 134.020,337.269 131.838,335.154 130.083 C 327.892 124.060,316.775 117.211,308.400 113.599 C 306.750 112.888,304.590 111.942,303.600 111.497 C 299.810 109.793,298.899 110.000,296.000 113.222 C 295.702 113.554,289.474 118.493,288.345 119.293 C 285.804 121.094,281.794 123.377,277.600 125.410 C 275.070 126.636,272.687 127.810,272.305 128.020 C 271.923 128.229,271.328 128.400,270.982 128.400 C 269.791 128.400,270.796 129.106,274.693 131.008 C 278.734 132.979,285.654 137.154,288.800 139.517 C 289.790 140.261,291.127 141.259,291.771 141.735 C 304.359 151.032,316.257 166.069,322.208 180.200 C 322.578 181.080,323.034 182.160,323.220 182.600 C 323.407 183.040,323.952 184.660,324.432 186.200 C 324.912 187.740,325.448 189.360,325.622 189.800 C 325.797 190.240,326.053 191.140,326.191 191.800 C 328.196 201.362,328.273 203.811,326.613 205.189 C 325.834 205.835,316.991 205.828,314.730 205.180 C 314.002 204.971,312.785 204.800,312.027 204.800 C 309.076 204.800,297.479 202.444,290.122 200.350 C 276.934 196.596,265.933 191.655,251.200 182.867 C 248.450 181.227,245.660 179.576,245.000 179.199 C 244.340 178.822,242.990 178.044,242.000 177.471 C 237.948 175.123,229.583 171.170,226.800 170.287 C 212.929 165.884,204.626 166.331,197.600 171.858 C 196.128 173.016,189.380 178.605,189.200 178.815 C 187.990 180.229,175.679 189.504,173.565 190.595 C 173.144 190.812,172.800 191.127,172.800 191.295 C 172.800 191.463,172.603 191.600,172.362 191.600 C 172.121 191.600,171.446 191.939,170.862 192.353 C 167.740 194.568,159.678 198.535,154.400 200.454 C 150.560 201.850,147.444 202.878,146.000 203.226 C 145.230 203.412,143.790 203.761,142.800 204.004 C 130.790 206.940,109.117 208.313,106.646 206.292 C 104.709 204.709,103.679 193.382,104.803 186.033 C 105.577 180.973,106.099 178.183,106.682 176.000 C 107.005 174.790,107.413 173.260,107.589 172.600 C 107.956 171.217,108.301 170.212,108.890 168.800 C 109.119 168.250,109.463 167.395,109.654 166.900 C 109.844 166.405,110.158 165.595,110.352 165.100 C 112.601 159.352,120.818 145.991,123.574 143.600 C 123.701 143.490,124.296 142.741,124.896 141.935 C 125.497 141.129,126.216 140.228,126.494 139.934 C 126.772 139.640,128.170 138.049,129.600 136.400 C 131.030 134.751,132.426 133.162,132.703 132.869 C 134.165 131.323,134.085 130.947,131.702 128.124 C 125.608 120.907,117.678 115.191,109.400 112.047 C 108.080 111.546,106.687 110.970,106.305 110.768 C 105.923 110.566,105.259 110.400,104.829 110.400 C 104.399 110.400,103.936 110.220,103.800 110.000 C 103.502 109.517,100.839 109.510,100.000 109.990 M64.618 154.972 C 65.849 156.849,65.267 158.351,62.400 160.699 C 57.886 164.397,56.357 164.655,54.853 161.972 C 52.854 158.407,62.390 151.571,64.618 154.972 M48.436 170.348 C 49.804 171.456,49.665 173.413,48.063 175.616 C 43.175 182.336,37.598 192.110,35.063 198.400 C 34.664 199.390,34.181 200.560,33.990 201.000 C 27.506 215.931,24.439 242.748,26.815 263.734 C 27.401 268.916,26.937 270.097,24.221 270.326 C 21.298 270.573,21.067 269.963,20.188 259.691 C 17.479 228.001,24.631 198.503,40.684 175.154 C 44.561 169.514,46.172 168.516,48.436 170.348 " stroke="none" fill="#ce222c" fill-rule="evenodd"></path><path id="path3" d="M57.701 156.446 C 53.815 159.673,53.415 162.032,56.503 163.516 C 58.392 164.424,64.889 159.708,65.127 157.256 C 65.522 153.196,62.068 152.820,57.701 156.446 M43.950 170.854 C 40.882 174.138,35.110 183.554,31.394 191.338 C 22.104 210.794,18.098 235.235,20.188 259.691 C 21.067 269.963,21.298 270.573,24.221 270.326 C 26.937 270.097,27.401 268.916,26.815 263.734 C 24.439 242.748,27.506 215.931,33.990 201.000 C 34.181 200.560,34.664 199.390,35.063 198.400 C 37.598 192.110,43.175 182.336,48.063 175.616 C 51.109 171.428,47.412 167.148,43.950 170.854 " stroke="none" fill="#e48b93" fill-rule="evenodd"></path><path id="path4" d="M99.600 109.577 C 99.270 109.759,98.550 110.090,98.000 110.313 C 84.030 115.979,69.544 124.681,59.621 133.369 C 53.972 138.315,48.487 143.815,43.000 150.035 C 40.565 152.795,32.939 163.210,31.000 166.423 C 27.331 172.501,26.844 173.370,24.053 178.800 C 19.537 187.586,14.827 199.730,13.195 206.800 C 12.877 208.176,11.916 212.044,11.208 214.800 C 11.010 215.570,10.649 217.370,10.406 218.800 C 10.162 220.230,9.795 222.300,9.589 223.400 C 9.382 224.500,9.126 226.210,9.018 227.200 C 7.131 244.591,7.410 258.254,9.964 273.600 C 10.706 278.058,12.069 284.218,13.173 288.100 C 13.408 288.925,13.760 290.185,13.957 290.900 C 16.153 298.904,22.395 313.825,26.716 321.400 C 37.328 340.000,50.102 354.622,66.600 367.052 C 69.811 369.472,77.017 374.400,77.344 374.400 C 77.440 374.400,78.676 375.103,80.091 375.963 C 86.900 380.100,100.277 385.958,107.600 388.011 C 108.590 388.288,110.210 388.773,111.200 389.088 C 112.190 389.402,113.810 389.835,114.800 390.050 C 115.790 390.264,117.320 390.611,118.200 390.821 C 131.032 393.880,133.880 393.990,200.000 393.986 C 257.998 393.983,265.311 393.844,272.400 392.607 C 273.170 392.473,274.880 392.179,276.200 391.955 C 280.476 391.227,287.905 389.474,291.200 388.415 C 292.410 388.025,294.210 387.471,295.200 387.182 C 296.190 386.892,297.180 386.541,297.400 386.400 C 297.620 386.259,298.610 385.899,299.600 385.600 C 300.590 385.301,301.580 384.938,301.800 384.793 C 302.020 384.649,303.280 384.110,304.600 383.596 C 341.362 369.281,375.063 330.924,386.043 290.900 C 386.240 290.185,386.592 288.925,386.827 288.100 C 390.926 273.686,393.040 253.902,392.046 239.270 C 391.200 226.836,389.591 216.929,386.804 207.000 C 386.557 206.120,386.214 204.860,386.042 204.200 C 383.934 196.117,377.127 180.182,372.117 171.600 C 356.723 145.233,332.507 123.245,306.800 112.290 C 306.030 111.962,304.547 111.312,303.504 110.847 C 302.462 110.381,301.373 110.000,301.084 110.000 C 300.796 110.000,300.372 109.812,300.141 109.581 C 299.849 109.289,298.936 109.866,297.129 111.481 C 293.513 114.715,292.794 115.304,289.502 117.730 C 284.630 121.321,276.213 125.974,271.667 127.590 C 269.121 128.495,269.314 128.735,275.055 131.800 C 282.571 135.813,284.935 137.265,289.381 140.596 C 297.972 147.033,306.881 155.758,310.750 161.525 C 311.294 162.336,311.856 163.090,312.000 163.200 C 314.247 164.926,321.372 178.713,323.887 186.200 C 326.922 195.238,328.084 203.441,326.500 204.643 C 324.334 206.287,304.191 203.783,291.800 200.329 C 288.782 199.487,280.600 196.777,279.905 196.389 C 279.523 196.175,278.966 196.000,278.667 196.000 C 278.368 196.000,277.600 195.750,276.961 195.444 C 276.323 195.138,275.170 194.619,274.400 194.291 C 270.843 192.777,269.513 192.160,265.445 190.140 C 260.381 187.625,257.031 185.784,252.671 183.115 C 250.949 182.062,249.447 181.200,249.332 181.200 C 249.217 181.200,248.646 180.861,248.062 180.447 C 244.032 177.588,232.264 171.653,227.267 169.959 C 218.045 166.832,207.077 165.995,202.749 168.089 C 200.880 168.994,194.292 173.517,193.600 174.371 C 193.330 174.705,184.188 182.323,182.414 183.692 C 173.191 190.815,165.132 195.619,156.800 198.963 C 139.387 205.951,107.875 209.635,106.077 204.894 C 103.431 197.915,105.766 175.920,110.047 167.505 C 110.241 167.123,110.400 166.632,110.400 166.413 C 110.400 164.145,119.713 148.557,123.506 144.475 C 123.784 144.176,124.504 143.271,125.104 142.465 C 125.705 141.659,126.946 140.190,127.862 139.200 C 134.355 132.184,134.850 131.284,133.337 129.238 C 128.122 122.180,118.111 114.839,108.800 111.244 C 106.930 110.522,104.987 109.767,104.481 109.566 C 103.359 109.119,100.420 109.126,99.600 109.577 M103.800 110.000 C 103.936 110.220,104.399 110.400,104.829 110.400 C 105.259 110.400,105.923 110.566,106.305 110.768 C 106.687 110.970,108.080 111.546,109.400 112.047 C 117.678 115.191,125.608 120.907,131.702 128.124 C 134.085 130.947,134.165 131.323,132.703 132.869 C 132.426 133.162,131.030 134.751,129.600 136.400 C 128.170 138.049,126.772 139.640,126.494 139.934 C 126.216 140.228,125.497 141.129,124.896 141.935 C 124.296 142.741,123.701 143.490,123.574 143.600 C 120.818 145.991,112.601 159.352,110.352 165.100 C 110.158 165.595,109.844 166.405,109.654 166.900 C 109.463 167.395,109.119 168.250,108.890 168.800 C 108.301 170.212,107.956 171.217,107.589 172.600 C 107.413 173.260,107.005 174.790,106.682 176.000 C 106.099 178.183,105.577 180.973,104.803 186.033 C 103.679 193.382,104.709 204.709,106.646 206.292 C 109.117 208.313,130.790 206.940,142.800 204.004 C 143.790 203.761,145.230 203.412,146.000 203.226 C 147.444 202.878,150.560 201.850,154.400 200.454 C 159.678 198.535,167.740 194.568,170.862 192.353 C 171.446 191.939,172.121 191.600,172.362 191.600 C 172.603 191.600,172.800 191.463,172.800 191.295 C 172.800 191.127,173.144 190.812,173.565 190.595 C 175.679 189.504,187.990 180.229,189.200 178.815 C 189.380 178.605,196.128 173.016,197.600 171.858 C 204.626 166.331,212.929 165.884,226.800 170.287 C 229.583 171.170,237.948 175.123,242.000 177.471 C 242.990 178.044,244.340 178.822,245.000 179.199 C 245.660 179.576,248.450 181.227,251.200 182.867 C 265.933 191.655,276.934 196.596,290.122 200.350 C 297.479 202.444,309.076 204.800,312.027 204.800 C 312.785 204.800,314.002 204.971,314.730 205.180 C 316.991 205.828,325.834 205.835,326.613 205.189 C 328.093 203.961,328.143 201.351,326.809 194.800 C 326.060 191.120,325.933 190.582,325.622 189.800 C 325.448 189.360,324.912 187.740,324.432 186.200 C 323.952 184.660,323.407 183.040,323.220 182.600 C 323.034 182.160,322.578 181.080,322.208 180.200 C 316.257 166.069,304.359 151.032,291.771 141.735 C 291.127 141.259,289.790 140.261,288.800 139.517 C 285.654 137.154,278.734 132.979,274.693 131.008 C 270.796 129.106,269.791 128.400,270.982 128.400 C 271.328 128.400,271.923 128.229,272.305 128.020 C 272.687 127.810,275.070 126.636,277.600 125.410 C 281.794 123.377,285.804 121.094,288.345 119.293 C 289.474 118.493,295.702 113.554,296.000 113.222 C 298.899 110.000,299.810 109.793,303.600 111.497 C 304.590 111.942,306.750 112.888,308.400 113.599 C 316.775 117.211,327.892 124.060,335.154 130.083 C 337.269 131.838,339.900 134.020,341.000 134.933 C 345.867 138.974,357.700 151.446,360.377 155.357 C 360.694 155.821,361.069 156.290,361.210 156.400 C 361.624 156.722,369.200 167.905,369.200 168.194 C 369.200 168.338,369.740 169.241,370.400 170.200 C 371.060 171.159,371.600 172.122,371.600 172.339 C 371.600 172.556,371.735 172.793,371.900 172.867 C 372.065 172.940,372.648 173.900,373.195 175.000 C 373.742 176.100,374.282 177.090,374.395 177.200 C 374.870 177.663,375.600 179.234,375.600 179.795 C 375.600 180.128,375.780 180.400,376.000 180.400 C 376.220 180.400,376.400 180.760,376.400 181.200 C 376.400 181.640,376.580 182.000,376.800 182.000 C 377.020 182.000,377.200 182.265,377.200 182.588 C 377.200 182.911,377.530 183.766,377.933 184.488 C 378.962 186.328,383.200 197.266,383.200 198.081 C 383.200 198.450,383.380 198.864,383.600 199.000 C 383.820 199.136,384.000 199.676,384.000 200.200 C 384.000 200.724,384.180 201.264,384.400 201.400 C 384.620 201.536,384.800 202.076,384.800 202.600 C 384.800 203.124,384.960 203.652,385.156 203.773 C 385.492 203.981,385.615 204.476,386.233 208.104 C 386.373 208.931,386.649 209.706,386.844 209.827 C 387.040 209.948,387.200 210.656,387.200 211.400 C 387.200 212.144,387.380 212.864,387.600 213.000 C 387.820 213.136,388.000 213.921,388.000 214.744 C 388.000 215.567,388.163 216.411,388.361 216.620 C 388.560 216.829,388.823 217.810,388.946 218.800 C 389.070 219.790,389.365 221.770,389.603 223.200 C 390.494 228.558,390.843 232.415,391.118 239.946 C 391.499 250.403,390.792 268.536,389.970 269.380 C 389.766 269.589,389.600 270.678,389.600 271.800 C 389.600 272.922,389.437 274.011,389.239 274.220 C 389.040 274.429,388.783 275.410,388.668 276.400 C 388.552 277.390,388.253 279.100,388.003 280.200 C 387.753 281.300,387.451 282.876,387.332 283.703 C 387.213 284.529,386.955 285.305,386.758 285.426 C 386.561 285.548,386.400 286.166,386.400 286.800 C 386.400 287.434,386.220 288.064,386.000 288.200 C 385.780 288.336,385.600 288.806,385.600 289.245 C 385.600 290.287,380.676 304.900,380.022 305.800 C 379.862 306.020,379.313 307.280,378.803 308.600 C 378.293 309.920,377.723 311.171,377.538 311.380 C 377.352 311.589,377.200 312.084,377.200 312.480 C 377.200 312.876,377.065 313.201,376.900 313.203 C 376.541 313.207,375.600 315.144,375.600 315.880 C 375.600 316.166,375.454 316.400,375.275 316.400 C 375.096 316.400,374.702 317.030,374.400 317.800 C 374.098 318.570,373.704 319.200,373.525 319.200 C 373.346 319.200,373.200 319.560,373.200 320.000 C 373.200 320.440,373.041 320.800,372.847 320.800 C 372.652 320.800,372.390 321.115,372.264 321.500 C 372.002 322.300,370.268 325.288,369.153 326.862 C 368.739 327.446,368.400 328.033,368.400 328.166 C 368.400 328.299,367.735 329.351,366.923 330.504 C 366.110 331.657,364.905 333.410,364.244 334.400 C 363.582 335.390,362.933 336.290,362.801 336.400 C 362.669 336.510,362.129 337.230,361.600 338.000 C 361.071 338.770,360.531 339.490,360.400 339.600 C 360.269 339.710,359.722 340.428,359.186 341.195 C 356.796 344.612,344.384 357.579,341.322 359.859 C 340.485 360.481,339.530 361.279,339.200 361.631 C 338.870 361.983,336.620 363.756,334.200 365.571 C 331.780 367.387,329.527 369.081,329.194 369.336 C 328.861 369.591,328.096 370.055,327.494 370.368 C 326.892 370.680,326.400 371.085,326.400 371.268 C 326.400 371.450,326.164 371.600,325.875 371.600 C 325.587 371.600,324.994 371.915,324.558 372.300 C 323.553 373.188,321.609 374.383,320.700 374.671 C 320.315 374.793,320.000 375.019,320.000 375.172 C 320.000 375.325,319.370 375.698,318.600 376.000 C 317.830 376.302,317.200 376.696,317.200 376.875 C 317.200 377.054,316.855 377.200,316.433 377.200 C 316.012 377.200,315.607 377.337,315.533 377.505 C 315.379 377.858,309.788 380.617,306.000 382.210 C 304.570 382.811,302.637 383.640,301.704 384.052 C 300.772 384.463,299.747 384.800,299.428 384.800 C 299.109 384.800,298.736 384.980,298.600 385.200 C 298.464 385.420,297.949 385.600,297.456 385.600 C 296.963 385.600,296.389 385.749,296.180 385.930 C 295.971 386.112,294.990 386.490,294.000 386.769 C 293.010 387.049,291.887 387.440,291.505 387.639 C 291.123 387.838,290.369 388.000,289.829 388.000 C 289.289 388.000,288.736 388.180,288.600 388.400 C 288.464 388.620,287.834 388.800,287.200 388.800 C 286.566 388.800,285.936 388.980,285.800 389.200 C 285.664 389.420,284.944 389.600,284.200 389.600 C 283.456 389.600,282.736 389.780,282.600 390.000 C 282.464 390.220,281.589 390.400,280.656 390.400 C 279.723 390.400,278.789 390.563,278.580 390.761 C 278.371 390.960,277.300 391.233,276.200 391.368 C 275.100 391.504,272.940 391.797,271.400 392.021 C 263.336 393.192,255.376 393.339,200.000 393.341 C 144.488 393.343,137.767 393.218,128.800 392.019 C 127.150 391.799,124.900 391.507,123.800 391.370 C 122.700 391.234,121.629 390.960,121.420 390.761 C 121.211 390.563,120.367 390.400,119.544 390.400 C 118.721 390.400,117.936 390.220,117.800 390.000 C 117.664 389.780,116.854 389.600,116.000 389.600 C 115.146 389.600,114.336 389.420,114.200 389.200 C 114.064 388.980,113.434 388.800,112.800 388.800 C 112.166 388.800,111.536 388.620,111.400 388.400 C 111.264 388.180,110.711 388.000,110.171 388.000 C 109.631 388.000,108.877 387.838,108.495 387.639 C 108.113 387.440,106.990 387.048,106.000 386.767 C 105.010 386.486,104.020 386.146,103.800 386.011 C 103.580 385.877,102.680 385.534,101.800 385.250 C 100.920 384.965,99.437 384.388,98.504 383.966 C 97.572 383.545,96.573 383.200,96.284 383.200 C 95.996 383.200,95.589 383.049,95.380 382.864 C 95.171 382.679,94.370 382.286,93.600 381.991 C 91.434 381.159,80.487 375.695,80.000 375.202 C 79.890 375.091,79.395 374.775,78.900 374.500 C 76.665 373.259,76.192 372.957,75.445 372.300 C 75.007 371.915,74.413 371.600,74.125 371.600 C 73.836 371.600,73.600 371.459,73.600 371.286 C 73.600 371.114,73.090 370.671,72.467 370.303 C 71.035 369.458,62.052 362.791,60.537 361.449 C 56.118 357.537,54.032 355.544,49.182 350.600 C 46.161 347.520,43.177 344.370,42.551 343.600 C 41.925 342.830,41.317 342.110,41.199 342.000 C 39.885 340.770,29.200 325.329,29.200 324.660 C 29.200 324.562,28.517 323.338,27.682 321.941 C 26.293 319.616,22.152 311.375,20.677 308.000 C 17.308 300.295,13.323 287.708,11.623 279.400 C 11.353 278.080,11.048 276.640,10.945 276.200 C 7.595 261.848,7.701 233.458,11.165 217.800 C 11.360 216.920,11.707 215.285,11.937 214.167 C 12.319 212.305,13.172 208.991,14.607 203.800 C 16.919 195.434,22.334 182.492,26.990 174.200 C 29.987 168.862,37.045 157.953,37.988 157.200 C 38.126 157.090,38.677 156.370,39.212 155.600 C 40.341 153.977,40.518 153.765,46.095 147.400 C 51.078 141.713,55.956 137.037,62.200 131.962 C 66.905 128.139,76.711 121.200,77.410 121.200 C 77.545 121.200,78.408 120.689,79.328 120.065 C 81.357 118.688,91.424 113.572,94.430 112.390 C 97.234 111.288,99.247 110.421,100.000 109.990 C 100.839 109.510,103.502 109.517,103.800 110.000 " stroke="none" fill="#8b273d" fill-rule="evenodd"></path></g></svg>